HIERARCHY
ROOT hip
{
  OFFSET 0 0 0
  CHANNELS 6 Xposition Yposition Zposition Zrotation Yrotation Xrotation
  JOINT abdomen
  {
    OFFSET 0 20.6881 -0.73152
    CHANNELS 3 Zrotation Xrotation Yrotation
    JOINT chest
    {
      OFFSET 0 11.7043 -0.48768
      CHANNELS 3 Zrotation Xrotation Yrotation
      JOINT neck
      {
        OFFSET 0 22.1894 -2.19456
        CHANNELS 3 Zrotation Xrotation Yrotation
        JOINT head
        {
          OFFSET -0.24384 7.07133 1.2192
          CHANNELS 3 Zrotation Xrotation Yrotation
          JOINT leftEye
          {
            OFFSET 4.14528 8.04674 8.04672
            CHANNELS 3 Zrotation Xrotation Yrotation
            End Site
            {
              OFFSET 1 0 0
            }
          }
          JOINT rightEye
          {
            OFFSET -3.6576 8.04674 8.04672
            CHANNELS 3 Zrotation Xrotation Yrotation
            End Site
            {
              OFFSET 1 0 0
            }
          }
        }
      }
      JOINT rCollar
      {
        OFFSET -2.68224 19.2634 -4.8768
        CHANNELS 3 Zrotation Xrotation Yrotation
        JOINT rShldr
        {
          OFFSET -8.77824 -1.95073 1.46304
          CHANNELS 3 Zrotation Xrotation Yrotation
          JOINT rForeArm
          {
            OFFSET -28.1742 -1.7115 0.48768
            CHANNELS 3 Zrotation Xrotation Yrotation
            JOINT rHand
            {
              OFFSET -22.5879 0.773209 7.07136
              CHANNELS 3 Zrotation Xrotation Yrotation
              JOINT rThumb1
              {
                OFFSET -1.2192 -0.487915 3.41376
                CHANNELS 3 Zrotation Xrotation Yrotation
                JOINT rThumb2
                {
                  OFFSET -3.37035 -0.52449 3.41376
                  CHANNELS 3 Zrotation Xrotation Yrotation
                  End Site
                  {
                    OFFSET -1.78271 -1.18214 1.43049
                  }
                }
              }
              JOINT rIndex1
              {
                OFFSET -7.75947 0.938293 5.60832
                CHANNELS 3 Zrotation Xrotation Yrotation
                JOINT rIndex2
                {
                  OFFSET -2.54057 -0.884171 1.56538
                  CHANNELS 3 Zrotation Xrotation Yrotation
                  End Site
                  {
                    OFFSET -1.62519 -0.234802 1.16502
                  }
                }
              }
              JOINT rMid1
              {
                OFFSET -8.24714 1.18213 3.41376
                CHANNELS 3 Zrotation Xrotation Yrotation
                JOINT rMid2
                {
                  OFFSET -3.10165 -0.590103 1.0647
                  CHANNELS 3 Zrotation Xrotation Yrotation
                  End Site
                  {
                    OFFSET -2.48547 -0.328903 0.83742
                  }
                }
              }
              JOINT rRing1
              {
                OFFSET -8.82822 0.546677 1.51678
                CHANNELS 3 Zrotation Xrotation Yrotation
                JOINT rRing2
                {
                  OFFSET -2.60934 -0.819778 -0.0198488
                  CHANNELS 3 Zrotation Xrotation Yrotation
                  End Site
                  {
                    OFFSET -2.33842 -0.294052 0.168128
                  }
                }
              }
              JOINT rPinky1
              {
                OFFSET -8.27202 -0.0477905 -0.4584
                CHANNELS 3 Zrotation Xrotation Yrotation
                JOINT rPinky2
                {
                  OFFSET -1.82734 -0.647385 -0.700984
                  CHANNELS 3 Zrotation Xrotation Yrotation
                  End Site
                  {
                    OFFSET -1.69225 -0.51767 -0.607171
                  }
                }
              }
            }
          }
        }
      }
      JOINT lCollar
      {
        OFFSET 2.68224 19.2634 -4.8768
        CHANNELS 3 Zrotation Xrotation Yrotation
        JOINT lShldr
        {
          OFFSET 8.77824 -1.95073 1.46304
          CHANNELS 3 Zrotation Xrotation Yrotation
          JOINT lForeArm
          {
            OFFSET 28.1742 -1.7115 0.48768
            CHANNELS 3 Zrotation Xrotation Yrotation
            JOINT lHand
            {
              OFFSET 22.5879 0.773209 7.07136
              CHANNELS 3 Zrotation Xrotation Yrotation
              JOINT lThumb1
              {
                OFFSET 1.2192 -0.487915 3.41376
                CHANNELS 3 Zrotation Xrotation Yrotation
                JOINT lThumb2
                {
                  OFFSET 3.37035 -0.52449 3.41376
                  CHANNELS 3 Zrotation Xrotation Yrotation
                  End Site
                  {
                    OFFSET 1.78271 -1.18214 1.43049
                  }
                }
              }
              JOINT lIndex1
              {
                OFFSET 7.75947 0.938293 5.60832
                CHANNELS 3 Zrotation Xrotation Yrotation
                JOINT lIndex2
                {
                  OFFSET 2.54057 -0.884171 1.56538
                  CHANNELS 3 Zrotation Xrotation Yrotation
                  End Site
                  {
                    OFFSET 1.62519 -0.234802 1.16502
                  }
                }
              }
              JOINT lMid1
              {
                OFFSET 8.24714 1.18213 3.41376
                CHANNELS 3 Zrotation Xrotation Yrotation
                JOINT lMid2
                {
                  OFFSET 3.10165 -0.590103 1.0647
                  CHANNELS 3 Zrotation Xrotation Yrotation
                  End Site
                  {
                    OFFSET 2.48547 -0.328903 0.83742
                  }
                }
              }
              JOINT lRing1
              {
                OFFSET 8.82822 0.546677 1.51678
                CHANNELS 3 Zrotation Xrotation Yrotation
                JOINT lRing2
                {
                  OFFSET 2.60934 -0.819778 -0.0198488
                  CHANNELS 3 Zrotation Xrotation Yrotation
                  End Site
                  {
                    OFFSET 2.33842 -0.294052 0.168128
                  }
                }
              }
              JOINT lPinky1
              {
                OFFSET 8.27202 -0.0477905 -0.4584
                CHANNELS 3 Zrotation Xrotation Yrotation
                JOINT lPinky2
                {
                  OFFSET 1.82734 -0.647385 -0.700984
                  CHANNELS 3 Zrotation Xrotation Yrotation
                  End Site
                  {
                    OFFSET 1.69225 -0.51767 -0.607171
                  }
                }
              }
            }
          }
        }
      }
    }
  }
  JOINT rButtock
  {
    OFFSET -8.77824 4.35084 1.2192
    CHANNELS 3 Zrotation Xrotation Yrotation
    JOINT rThigh
    {
      OFFSET 0 -1.70687 -2.19456
      CHANNELS 3 Zrotation Xrotation Yrotation
      JOINT rShin
      {
        OFFSET 0 -36.8199 0.73152
        CHANNELS 3 Zrotation Xrotation Yrotation
        JOINT rFoot
        {
          OFFSET 0.73152 -45.1104 -5.12064
          CHANNELS 3 Zrotation Xrotation Yrotation
          End Site
          {
            OFFSET -1.1221 -3.69964 12.103
          }
        }
      }
    }
  }
  JOINT lButtock
  {
    OFFSET 8.77824 4.35084 1.2192
    CHANNELS 3 Zrotation Xrotation Yrotation
    JOINT lThigh
    {
      OFFSET 0 -1.70687 -2.19456
      CHANNELS 3 Zrotation Xrotation Yrotation
      JOINT lShin
      {
        OFFSET 0 -36.8199 0.73152
        CHANNELS 3 Zrotation Xrotation Yrotation
        JOINT lFoot
        {
          OFFSET -0.73152 -45.1104 -5.12064
          CHANNELS 3 Zrotation Xrotation Yrotation
          End Site
          {
            OFFSET 1.1221 -3.69964 12.103
          }
        }
      }
    }
  }
}
MOTION
Frames:	4
Frame Time:	0.03333
-0.07964113241669503 38.90704221067 -0.20798367708810997 0.7556997537612915 12.804500579833984 6.478599548339844 -9.62343978881836 8.093039512634277 -10.684597969055176 8.202999114990234 -6.552309989929199 -2.70790958404541 -9.354508399963379 24.4424991607666 -19.569198608398438 19.10379981994629 -21.604698181152344 -35.28590393066406 -0.0 0.0 -0.0 -0.0 0.0 -0.0 -7.062249689118779e-30 -1.2722218027325094e-13 -2.162777064645266e-13 62.55279541015625 35.38460159301758 -0.6315509676933289 -18.24959945678711 -10.957599639892578 34.58250045776367 -0.002551719779148698 1.442219853401184 0.20273499190807343 6.344569869476402e-10 -1.1913848796396564e-09 -5.470553697539682e-12 1.1000647059944413e-09 -2.062678694514375e-09 -1.0826607839409252e-11 6.344697545124234e-10 -1.1913848796396564e-09 -5.483276159512496e-12 7.7309088706970215 5.474880218505859 0.41731396317481995 6.344569869476402e-10 -1.1913848796396564e-09 -5.470553697539682e-12 2.9055399894714355 0.9651829600334167 0.10290198773145676 6.344569869476402e-10 -1.1913848796396564e-09 -5.470553697539682e-12 10.27859878540039 0.73180091381073 0.025912299752235413 6.344569869476402e-10 -1.1913848796396564e-09 -5.457831669247737e-12 2.2216696739196777 -0.7334870100021362 -0.2089199721813202 -5.2966872668390844e-30 -1.2722218027325094e-13 -2.162777064645266e-13 -73.18989562988281 35.204498291015625 -8.52904987335205 17.42589569091797 -10.082499504089355 -32.744598388671875 0.07582880556583405 7.8320393562316895 -1.107699990272522 -4.417026744363284e-10 -9.419657276410476e-10 -2.401318588418633e-10 -7.695669657081794e-10 -1.6321715090583666e-09 -4.118181906598295e-10 -4.417026744363284e-10 -9.419530710985669e-10 -2.401255028150473e-10 -7.7309088706970215 5.474880218505859 -0.41731396317481995 -4.417026744363284e-10 -9.419657276410476e-10 -2.401318588418633e-10 -2.9055399894714355 0.9651829600334167 -0.10290198773145676 -4.417026744363284e-10 -9.419530710985669e-10 -2.401318588418633e-10 -10.27859878540039 0.73180091381073 -0.025912299752235413 -4.417026744363284e-10 -9.419530710985669e-10 -2.4013821486867926e-10 -2.2216696739196777 -0.7334870100021362 0.2089199721813202 -0.0 0.0 -0.0 -35.555397033691406 -63.66959762573242 -31.563501358032227 -2.02616024017334 70.25570678710938 2.683990240097046 2.6178395748138428 -6.582769870758057 14.518299102783203 -0.0 0.0 -0.0 4.035379886627197 7.759809970855713 3.695549726486206 -0.05657271295785904 35.971099853515625 -2.326820135116577 23.531599044799805 -20.731300354003906 42.38529586791992
-0.08577178081563022 38.904006191583925 -0.2257453689137899 0.739599883556366 12.759199142456055 6.443999767303467 -9.618538856506348 8.080069541931152 -10.734999656677246 8.214159965515137 -6.578440189361572 -2.719210147857666 -9.311039924621582 24.347497940063477 -19.713098526000977 18.999496459960938 -21.364200592041016 -35.591392517089844 -0.0 0.0 -0.0 -0.0 0.0 -0.0 5.0888872109300376e-14 1.2722218027325094e-14 3.816665408197528e-14 62.55789566040039 35.36159896850586 -0.6555538773536682 -18.2510986328125 -10.958600997924805 34.585304260253906 -0.002749019768089056 1.498189926147461 0.2106049805879593 -3.2631217172784943e-10 2.3824897610325024e-10 -1.284689576941389e-10 -5.611770492741641e-10 4.076071424830019e-10 -2.211248684158562e-10 -3.2629945967421747e-10 2.3824897610325024e-10 -1.2847531372095489e-10 7.7309088706970215 5.474880218505859 0.41731396317481995 -3.2629945967421747e-10 2.382362640496183e-10 -1.2846260166732293e-10 2.9055399894714355 0.9651829600334167 0.10290198773145676 -3.2631217172784943e-10 2.3824897610325024e-10 -1.284689576941389e-10 10.27859878540039 0.73180091381073 0.025912299752235413 -3.2631217172784943e-10 2.3824897610325024e-10 -1.2845623176271914e-10 2.2216696739196777 -0.7334870100021362 -0.2089199721813202 5.0888872109300376e-14 1.2722218027325094e-14 3.816665408197528e-14 -73.2127914428711 35.26869583129883 -8.49617862701416 17.448896408081055 -10.106199264526367 -32.79530334472656 0.07448931038379669 7.763349533081055 -1.0978599786758423 -1.1336895866520535e-09 -2.2844650615638784e-09 -6.388589102179765e-10 -1.9664858630363824e-09 -3.948085858240802e-09 -1.0961399565800889e-09 -1.1337022431945343e-09 -2.2844650615638784e-09 -6.388461981643445e-10 -7.7309088706970215 5.474880218505859 -0.41731396317481995 -1.1336895866520535e-09 -2.2844650615638784e-09 -6.388589102179765e-10 -2.9055399894714355 0.9651829600334167 -0.10290198773145676 -1.1337022431945343e-09 -2.2844524050213977e-09 -6.388589102179765e-10 -10.27859878540039 0.73180091381073 -0.025912299752235413 -1.1336895866520535e-09 -2.2844524050213977e-09 -6.388652384892168e-10 -2.2216696739196777 -0.7334870100021362 0.2089199721813202 -0.0 0.0 -0.0 -35.58549499511719 -63.70389938354492 -31.555797576904297 -2.027589797973633 70.25480651855469 2.6857998371124268 2.6250195503234863 -6.594679832458496 14.52879810333252 -0.0 0.0 -0.0 3.987489938735962 7.762149333953857 3.6959104537963867 -0.05781153216958046 35.95329666137695 -2.325939893722534 23.558698654174805 -20.788501739501953 42.36960220336914
-0.0900116686843069 38.89839177608618 -0.2326208622816702 0.8151999115943909 12.747498512268066 6.504199504852295 -9.581607818603516 8.074580192565918 -10.798299789428711 8.22809886932373 -6.600209712982178 -2.733759880065918 -9.27357006072998 24.269399642944336 -19.828899383544922 18.94879722595215 -21.182498931884766 -35.83110046386719 -0.0 0.0 -0.0 -0.0 0.0 -0.0 7.633330816395056e-14 1.5266661632790113e-13 2.480832379803122e-13 62.56789779663086 35.31740188598633 -0.6843460202217102 -18.251798629760742 -10.959898948669434 34.587398529052734 -0.0030656694434583187 1.580759882926941 0.22221797704696655 -9.060381889192115e-10 1.1034870794901508e-09 -1.413565653418658e-10 -1.5637641181953654e-09 1.9027348585609616e-09 -2.418875377774299e-10 -9.060127648119476e-10 1.1034743119253676e-09 -1.413565653418658e-10 7.7309088706970215 5.474880218505859 0.41731396317481995 -9.060127648119476e-10 1.1034743119253676e-09 -1.4134383941044604e-10 2.9055399894714355 0.9651829600334167 0.10290198773145676 -9.060254768655795e-10 1.1034997360326315e-09 -1.413565653418658e-10 10.27859878540039 0.73180091381073 0.025912299752235413 -9.060381889192115e-10 1.1034997360326315e-09 -1.4134383941044604e-10 2.2216696739196777 -0.7334870100021362 -0.2089199721813202 7.633330816395056e-14 1.5266661632790113e-13 2.480832379803122e-13 -73.2168960571289 35.34439468383789 -8.485509872436523 17.4695987701416 -10.1274995803833 -32.840797424316406 0.07317650318145752 7.694910526275635 -1.088059902191162 -1.2385842351747556e-09 -2.433582224625752e-09 -6.739849234271844e-10 -2.1457675636327167e-09 -4.202262982033744e-09 -1.1559280199691102e-09 -1.2385970027395388e-09 -2.433582224625752e-09 -6.739658831023121e-10 -7.7309088706970215 5.474880218505859 -0.41731396317481995 -1.2385842351747556e-09 -2.433582224625752e-09 -6.739849234271844e-10 -2.9055399894714355 0.9651829600334167 -0.10290198773145676 -1.2385842351747556e-09 -2.433582224625752e-09 -6.739849234271844e-10 -10.27859878540039 0.73180091381073 -0.025912299752235413 -1.2385842351747556e-09 -2.433582224625752e-09 -6.739976909919676e-10 -2.2216696739196777 -0.7334870100021362 0.2089199721813202 -0.0 0.0 -0.0 -35.569698333740234 -63.730995178222656 -31.531700134277344 -2.026370048522949 70.24700164794922 2.682370185852051 2.6316797733306885 -6.606439590454102 14.535599708557129 -0.0 0.0 -0.0 3.9759998321533203 7.759809970855713 3.6939198970794678 -0.058888405561447144 35.94649887084961 -2.3254997730255127 23.597198486328125 -20.871997833251953 42.34099578857422
-0.11510721943538184 38.896042191011695 -0.2326208622816702 0.9294000267982483 12.7214994430542 6.497999668121338 -9.513809204101562 8.112959861755371 -10.96929931640625 8.295598030090332 -6.608759880065918 -2.7771997451782227 -9.248199462890625 24.375699996948242 -19.841997146606445 19.061798095703125 -21.421401977539062 -35.81769943237305 -0.0 0.0 -0.0 -0.0 0.0 -0.0 -1.2722218027325094e-14 5.0888872109300376e-14 1.5266661632790113e-13 62.46889877319336 35.39569854736328 -0.6088649034500122 -18.24869728088379 -10.962299346923828 34.58559799194336 -0.0031703088898211718 1.6068799495697021 0.22589194774627686 2.393558129476503e-10 -8.432667897295687e-10 2.4011279076141534e-10 4.170088718780107e-10 -1.4622663080388065e-09 4.1513234516621367e-10 2.3936852500128225e-10 -8.432795017832007e-10 2.4010640697902375e-10 7.7309088706970215 5.474880218505859 0.41731396317481995 2.3936852500128225e-10 -8.432795017832007e-10 2.401191467882313e-10 2.9055399894714355 0.9651829600334167 0.10290198773145676 2.3936852500128225e-10 -8.432667897295687e-10 2.4011279076141534e-10 10.27859878540039 0.73180091381073 0.025912299752235413 2.393558129476503e-10 -8.432667897295687e-10 2.401191467882313e-10 2.2216696739196777 -0.7334870100021362 -0.2089199721813202 -2.5444436054650188e-14 5.0888872109300376e-14 1.4630550731423858e-13 -73.22569274902344 35.31699752807617 -8.526509284973145 17.468799591064453 -10.126798629760742 -32.83919906616211 0.07262027263641357 7.665749549865723 -1.0838898420333862 4.638520817445979e-11 5.215218812359979e-10 4.4386547215502503e-10 8.263080497616926e-11 9.061654204778335e-10 7.688545355932774e-10 4.638520817445979e-11 5.215218812359979e-10 4.43871828181841e-10 -7.7309088706970215 5.474880218505859 -0.41731396317481995 4.638520817445979e-11 5.215218812359979e-10 4.4385911612820905e-10 -2.9055399894714355 0.9651829600334167 -0.10290198773145676 4.638520817445979e-11 5.215218812359979e-10 4.4386547215502503e-10 -10.27859878540039 0.73180091381073 -0.025912299752235413 4.638520817445979e-11 5.215345932896298e-10 4.4385273234581746e-10 -2.2216696739196777 -0.7334870100021362 0.2089199721813202 -0.0 0.0 -0.0 -35.49909591674805 -63.72749710083008 -31.489898681640625 -2.024009943008423 70.23700714111328 2.6764492988586426 2.6343297958374023 -6.6060099601745605 14.549698829650879 -0.0 0.0 -0.0 4.011329650878906 7.766300201416016 3.693859577178955 -0.059148773550987244 35.9517936706543 -2.3254098892211914 23.60719871520996 -20.885398864746094 42.33869552612305
